<svg width="32" height="16" viewBox="0 0 32 16" fill="none" xmlns="http://www.w3.org/2000/svg">
<path d="M31.9947 12.6854C31.9947 15.4374 28.4387 16.7587 26.556 13.5627L23.456 8.22405V12.6854C23.456 15.4374 19.9013 16.7587 18.02 13.5627C16.9852 11.7837 15.9514 10.0042 14.9187 8.22405V12.4307C14.9187 14.34 13.7853 15.3734 12.0133 15.3734H7.37333C5.4178 15.3734 3.54237 14.5965 2.1596 13.2138C0.776831 11.831 0 9.95558 0 8.00005C0 6.04452 0.776831 4.16908 2.1596 2.78631C3.54237 1.40354 5.4178 0.626712 7.37333 0.626712H9.76533V2.40005H7.37333C6.6304 2.38858 5.8926 2.52501 5.20289 2.8014C4.51318 3.07778 3.88533 3.48859 3.3559 4.00992C2.82646 4.53125 2.40601 5.15269 2.11902 5.83805C1.83203 6.52342 1.68424 7.25902 1.68424 8.00205C1.68424 8.74507 1.83203 9.48068 2.11902 10.166C2.40601 10.8514 2.82646 11.4728 3.3559 11.9942C3.88533 12.5155 4.51318 12.9263 5.20289 13.2027C5.8926 13.4791 6.6304 13.6155 7.37333 13.604H11.9733C12.282 13.5979 12.5764 13.4727 12.7948 13.2545C13.0133 13.0363 13.1389 12.7421 13.1453 12.4334V3.36671C13.1411 3.28595 13.1642 3.20613 13.2109 3.14009C13.2576 3.07406 13.3251 3.02566 13.4027 3.00271C13.5907 2.95205 13.7893 3.06805 13.9347 3.31338L16.804 8.25871L19.5813 13.044C19.9547 13.676 20.5133 13.7867 20.9107 13.6774C21.1383 13.6137 21.3382 13.4759 21.4787 13.2859C21.6193 13.0958 21.6924 12.8643 21.6867 12.628V3.36671C21.682 3.28608 21.7045 3.2062 21.7507 3.13994C21.7969 3.07368 21.8641 3.02488 21.9413 3.00138C22.128 2.95071 22.324 3.06671 22.468 3.31205L25.128 7.89471L28.1173 13.048C28.4093 13.5427 28.816 13.7187 29.1707 13.7187C29.2635 13.7187 29.3559 13.7062 29.4453 13.6814C29.6754 13.6191 29.8779 13.4815 30.0205 13.2905C30.1631 13.0996 30.2376 12.8663 30.232 12.628V0.628046H32L31.9947 12.6854ZM10.6707 10.6267V3.31471C10.6707 0.562713 14.2267 -0.758621 16.108 2.43871C16.2453 2.66938 19.2093 7.77471 19.2093 7.77471V3.31471C19.2093 0.562713 22.764 -0.758621 24.6453 2.43871C24.7827 2.66938 27.7453 7.77471 27.7453 7.77471V0.628046H29.52V12.628C29.5245 12.7092 29.5013 12.7895 29.4544 12.8558C29.4074 12.9221 29.3394 12.9706 29.2613 12.9934C29.0747 13.044 28.8747 12.928 28.7307 12.6814C27.7323 10.9666 26.7367 9.25012 25.744 7.53205L23.084 2.95338C22.7107 2.32138 22.156 2.21071 21.7613 2.31738C21.5337 2.38093 21.3336 2.51839 21.1926 2.70812C21.0517 2.89784 20.9778 3.12907 20.9827 3.36538V12.6267C20.987 12.7078 20.964 12.788 20.9174 12.8545C20.8707 12.921 20.8031 12.9699 20.7253 12.9934C20.5347 13.044 20.3373 12.928 20.1933 12.6814C20.1667 12.6387 18.768 10.228 17.416 7.89605C16.4592 6.24683 15.5019 4.59794 14.544 2.94938C14.172 2.31471 13.6147 2.20538 13.2173 2.31205C12.9895 2.37556 12.7893 2.51296 12.6481 2.70266C12.5069 2.89237 12.4328 3.12361 12.4373 3.36005V12.4267C12.4297 12.5475 12.3782 12.6614 12.2925 12.7468C12.2068 12.8323 12.0928 12.8835 11.972 12.8907H7.36933C6.07101 12.8907 4.82586 12.375 3.90781 11.4569C2.98976 10.5389 2.474 9.2937 2.474 7.99538C2.474 6.69706 2.98976 5.45191 3.90781 4.53386C4.82586 3.6158 6.07101 3.10005 7.36933 3.10005H9.76267V4.87071H7.38933C6.56062 4.87071 5.76585 5.19992 5.17986 5.78591C4.59387 6.3719 4.26467 7.16667 4.26467 7.99538C4.26467 8.82409 4.59387 9.61886 5.17986 10.2049C5.76585 10.7908 6.56062 11.12 7.38933 11.12H10.1813C10.2461 11.1206 10.3103 11.1082 10.3702 11.0835C10.43 11.0589 10.4844 11.0225 10.53 10.9765C10.5756 10.9305 10.6115 10.8759 10.6357 10.8158C10.6598 10.7558 10.6717 10.6915 10.6707 10.6267Z" fill="#FF4747"/>
</svg>
