<svg width="84" height="73" viewBox="0 0 84 73" fill="none" xmlns="http://www.w3.org/2000/svg">
<path fill-rule="evenodd" clip-rule="evenodd" d="M67.5055 2.97943C73.5786 2.97943 78.5018 7.78186 78.5018 13.706C78.5018 19.6301 73.5786 24.4325 67.5055 24.4325H56.5091V13.706C56.5091 7.78186 61.4323 2.97943 67.5055 2.97943Z" fill="#2563EB"/>
<path d="M31.0107 68.0337C25.7354 68.0337 20.9352 66.9168 16.6104 64.6831C12.238 62.4731 8.74479 59.1463 6.13086 54.7026C3.54069 50.259 2.24561 44.7935 2.24561 38.3062C2.24561 32.8882 3.23177 27.9574 5.2041 23.5137C7.17643 19.1175 10.0636 15.6362 13.8657 13.0698C17.6916 10.4797 22.3135 9.18457 27.7314 9.18457C30.488 9.18457 32.9593 9.83805 35.1455 11.145C37.3555 12.4282 38.9476 14.056 39.9219 16.0283L41.3833 10.2896H52.4688V33.5654H41.0981V32.3892C41.0981 29.3713 40.3971 26.8999 38.9951 24.9751C37.6169 23.0503 35.5614 22.0879 32.8286 22.0879C30.9989 22.0879 29.3117 22.7889 27.7671 24.1909C26.2463 25.6167 25.0462 27.4821 24.167 29.7871C23.2878 32.0684 22.8481 34.4209 22.8481 36.8447C22.8481 41.6211 24.0363 45.3638 26.4126 48.0728C28.7889 50.758 32.0444 52.1006 36.1792 52.1006C39.1021 52.1006 41.811 51.6134 44.3062 50.6392C46.825 49.6649 48.8924 48.6193 50.5083 47.5024L51.2925 48.1797V63.3643C48.2746 65.099 45.0903 66.3109 41.7397 67C38.3892 67.6891 34.8128 68.0337 31.0107 68.0337Z" fill="#2563EB"/>
<path d="M63.2369 67.6416C61.0507 67.6416 59.0665 67.1901 57.2843 66.2871C55.5258 65.3604 54.0288 64.2316 52.7931 62.9009L51.4386 67H35.4342V23.4067H30.836V13.7114L52.5079 11.3589V32.603C54.3614 31.106 56.2862 29.9772 58.2823 29.2168C60.2784 28.4564 62.1795 28.0762 63.9855 28.0762C67.3598 28.0762 70.2708 28.9554 72.7184 30.7139C75.1184 32.4723 76.9125 34.8486 78.1007 37.8428C79.2888 40.8369 79.8829 44.1519 79.8829 47.7876C79.8829 51.6134 79.2651 55.0116 78.0294 57.9819C76.7937 60.9761 74.9164 63.3405 72.3976 65.0752C69.9025 66.7861 66.8489 67.6416 63.2369 67.6416ZM58.0685 57.2334C59.7794 57.2334 61.1933 56.3898 62.3102 54.7026C63.427 53.0155 63.9855 51.055 63.9855 48.8213C63.9855 46.041 63.4983 43.6291 62.524 41.5854C61.5497 39.5418 60.0646 38.52 58.0685 38.52C56.9516 38.52 55.8585 38.7695 54.7892 39.2686C53.7198 39.7438 52.9594 40.2785 52.5079 40.8726V55.4512C53.0545 55.9027 53.8624 56.3185 54.9317 56.6987C56.0011 57.0552 57.0467 57.2334 58.0685 57.2334Z" fill="#2563EB"/>
</svg>
