<svg width="224" height="52" viewBox="0 0 224 52" fill="none" xmlns="http://www.w3.org/2000/svg">
<path fill-rule="evenodd" clip-rule="evenodd" d="M44.2 3.95906C48.1764 3.95906 51.4 7.11683 51.4 11.0121C51.4 14.9074 48.1764 18.0652 44.2 18.0652H37V11.0121C37 7.11683 40.2235 3.95906 44.2 3.95906Z" fill="#2563EB"/>
<path d="M20.3906 46.6797C16.9219 46.6797 13.7656 45.9453 10.9219 44.4766C8.04688 43.0234 5.75 40.8359 4.03125 37.9141C2.32812 34.9922 1.47656 31.3984 1.47656 27.1328C1.47656 23.5703 2.125 20.3281 3.42188 17.4062C4.71875 14.5156 6.61719 12.2266 9.11719 10.5391C11.6328 8.83594 14.6719 7.98438 18.2344 7.98438C20.0469 7.98438 21.6719 8.41406 23.1094 9.27344C24.5625 10.1172 25.6094 11.1875 26.25 12.4844L27.2109 8.71094H34.5V24.0156H27.0234V23.2422C27.0234 21.2578 26.5625 19.6328 25.6406 18.3672C24.7344 17.1016 23.3828 16.4688 21.5859 16.4688C20.3828 16.4688 19.2734 16.9297 18.2578 17.8516C17.2578 18.7891 16.4688 20.0156 15.8906 21.5312C15.3125 23.0312 15.0234 24.5781 15.0234 26.1719C15.0234 29.3125 15.8047 31.7734 17.3672 33.5547C18.9297 35.3203 21.0703 36.2031 23.7891 36.2031C25.7109 36.2031 27.4922 35.8828 29.1328 35.2422C30.7891 34.6016 32.1484 33.9141 33.2109 33.1797L33.7266 33.625V43.6094C31.7422 44.75 29.6484 45.5469 27.4453 46C25.2422 46.4531 22.8906 46.6797 20.3906 46.6797Z" fill="#2563EB"/>
<path d="M41.5 46.4219C40.0625 46.4219 38.7578 46.125 37.5859 45.5312C36.4297 44.9219 35.4453 44.1797 34.6328 43.3047L33.7422 46H23.2188V17.3359H20.1953V10.9609L34.4453 9.41406V23.3828C35.6641 22.3984 36.9297 21.6562 38.2422 21.1562C39.5547 20.6562 40.8047 20.4062 41.9922 20.4062C44.2109 20.4062 46.125 20.9844 47.7344 22.1406C49.3125 23.2969 50.4922 24.8594 51.2734 26.8281C52.0547 28.7969 52.4453 30.9766 52.4453 33.3672C52.4453 35.8828 52.0391 38.1172 51.2266 40.0703C50.4141 42.0391 49.1797 43.5938 47.5234 44.7344C45.8828 45.8594 43.875 46.4219 41.5 46.4219ZM38.1016 39.5781C39.2266 39.5781 40.1562 39.0234 40.8906 37.9141C41.625 36.8047 41.9922 35.5156 41.9922 34.0469C41.9922 32.2188 41.6719 30.6328 41.0312 29.2891C40.3906 27.9453 39.4141 27.2734 38.1016 27.2734C37.3672 27.2734 36.6484 27.4375 35.9453 27.7656C35.2422 28.0781 34.7422 28.4297 34.4453 28.8203V38.4062C34.8047 38.7031 35.3359 38.9766 36.0391 39.2266C36.7422 39.4609 37.4297 39.5781 38.1016 39.5781Z" fill="#2563EB"/>
<path d="M72.6211 40V11.25H78.8906L90.8438 30.1953H90.9219V11.25H97.1719V40H90.9023L78.9492 21.0156H78.8711V40H72.6211ZM110.687 40.3125C108.603 40.3125 106.793 39.8828 105.257 39.0234C103.734 38.151 102.555 36.9206 101.722 35.332C100.902 33.7435 100.491 31.8685 100.491 29.707C100.491 27.5977 100.902 25.7487 101.722 24.1602C102.555 22.5586 103.727 21.3086 105.237 20.4102C106.748 19.5117 108.519 19.0625 110.55 19.0625C112.568 19.0625 114.313 19.5052 115.784 20.3906C117.256 21.263 118.389 22.4935 119.183 24.082C119.99 25.6706 120.394 27.5391 120.394 29.6875V31.0742H102.581V27.5H114.945C114.918 26.6927 114.71 25.9766 114.32 25.3516C113.942 24.7266 113.428 24.2383 112.777 23.8867C112.139 23.5352 111.422 23.3594 110.628 23.3594C109.769 23.3594 109.007 23.5612 108.343 23.9648C107.692 24.3685 107.184 24.9023 106.82 25.5664C106.455 26.2174 106.273 26.9401 106.273 27.7344V31.2305C106.26 32.1159 106.429 32.9232 106.78 33.6523C107.145 34.3685 107.659 34.9414 108.323 35.3711C109.001 35.7878 109.808 36.0026 110.745 36.0156C111.396 36.0026 111.995 35.8984 112.542 35.7031C113.102 35.4948 113.577 35.2018 113.968 34.8242C114.372 34.4466 114.658 34.0039 114.827 33.4961H120.218C119.971 34.8763 119.424 36.0807 118.577 37.1094C117.731 38.125 116.637 38.9128 115.296 39.4727C113.955 40.0326 112.418 40.3125 110.687 40.3125ZM128.069 40L122.268 19.375H128.303L131.604 32.9492H131.682L135.139 19.375H141.057L144.475 32.9102H144.553L147.893 19.375H153.928L148.127 40H141.858L138.147 27.3438H138.069L134.319 40H128.069ZM174.298 25.9766H168.732C168.719 25.1693 168.393 24.5312 167.755 24.0625C167.117 23.5938 166.33 23.3594 165.392 23.3594C164.533 23.3594 163.817 23.5352 163.244 23.8867C162.671 24.2253 162.384 24.681 162.384 25.2539C162.384 25.7227 162.58 26.1198 162.97 26.4453C163.374 26.7708 163.992 27.0247 164.826 27.207L168.693 27.9688C170.607 28.3464 172.098 28.9779 173.166 29.8633C174.246 30.7357 174.787 31.9727 174.787 33.5742C174.787 34.9674 174.39 36.1719 173.595 37.1875C172.801 38.2031 171.707 38.9844 170.314 39.5312C168.934 40.0651 167.365 40.332 165.607 40.332C163.719 40.332 162.078 40.0586 160.685 39.5117C159.292 38.9648 158.192 38.1771 157.384 37.1484C156.577 36.1198 156.121 34.8828 156.017 33.4375H161.935C162.052 34.3099 162.43 34.9609 163.068 35.3906C163.719 35.8203 164.572 36.0352 165.627 36.0352C166.564 36.0352 167.319 35.8724 167.892 35.5469C168.465 35.2083 168.752 34.7396 168.752 34.1406C168.752 33.5938 168.511 33.1771 168.029 32.8906C167.56 32.6042 166.935 32.3828 166.154 32.2266L162.619 31.543C160.548 31.1263 159.005 30.4102 157.99 29.3945C156.987 28.3659 156.486 27.0703 156.486 25.5078C156.486 24.1797 156.844 23.0404 157.56 22.0898C158.289 21.1263 159.311 20.3841 160.627 19.8633C161.942 19.3424 163.491 19.082 165.275 19.082C167.97 19.082 170.132 19.694 171.759 20.918C173.4 22.1289 174.246 23.8151 174.298 25.9766ZM191.973 30.957V19.375H197.989V40H192.169V36.2305H192.091C191.635 37.4544 190.847 38.444 189.727 39.1992C188.621 39.9414 187.273 40.3125 185.684 40.3125C184.213 40.3125 182.898 39.987 181.739 39.3359C180.58 38.6719 179.669 37.7344 179.005 36.5234C178.341 35.3125 178.009 33.8737 178.009 32.207V19.375H184.005V31.1523C184.005 32.5065 184.356 33.5482 185.059 34.2773C185.762 34.9935 186.72 35.3516 187.93 35.3516C188.712 35.3516 189.402 35.1888 190.001 34.8633C190.613 34.5378 191.095 34.0495 191.446 33.3984C191.798 32.7474 191.973 31.9336 191.973 30.957ZM202.051 48.125V19.375H207.988V22.7344H208.125C208.672 21.6016 209.46 20.7096 210.488 20.0586C211.517 19.3945 212.741 19.0625 214.16 19.0625C215.684 19.0625 217.077 19.4596 218.34 20.2539C219.616 21.0352 220.632 22.2135 221.387 23.7891C222.155 25.3516 222.539 27.3112 222.539 29.668C222.539 31.9596 222.168 33.8997 221.426 35.4883C220.684 37.0638 219.674 38.2617 218.398 39.082C217.135 39.8893 215.703 40.293 214.102 40.293C212.721 40.293 211.51 39.974 210.469 39.3359C209.44 38.6979 208.659 37.8385 208.125 36.7578H208.027V48.125H202.051ZM207.812 29.668C207.812 30.8659 207.988 31.9076 208.34 32.793C208.704 33.6654 209.212 34.3424 209.863 34.8242C210.514 35.306 211.283 35.5469 212.168 35.5469C213.04 35.5469 213.796 35.319 214.434 34.8633C215.072 34.4076 215.566 33.7435 215.918 32.8711C216.27 31.9857 216.445 30.918 216.445 29.668C216.445 28.4049 216.27 27.3372 215.918 26.4648C215.566 25.5924 215.072 24.9284 214.434 24.4727C213.796 24.0169 213.04 23.7891 212.168 23.7891C211.283 23.7891 210.514 24.0299 209.863 24.5117C209.212 24.9805 208.704 25.6576 208.34 26.543C207.988 27.4154 207.812 28.457 207.812 29.668Z" fill="#2563EB"/>
</svg>
