<svg width="24" height="24" viewBox="0 0 24 24" fill="none" xmlns="http://www.w3.org/2000/svg">
<path d="M23.9962 14.1694C23.9984 13.6759 23.9208 11.814 23.8615 11.2815C23.179 5.17012 18.2189 0.734619 12.0682 0.734619C5.66166 0.734619 0.470936 5.67112 0.118787 12.2167C0.111287 12.3596 0.0587871 13.3732 0.0550371 13.9766L0.0531621 14.3122C0.0224121 14.451 0.00366211 14.5942 0.00366211 14.742V21.273C0.00366211 22.3717 0.897287 23.2654 1.99604 23.2654H4.01841C5.11716 23.2654 6.01114 22.3717 6.01114 21.273V14.7424C6.01114 13.6436 5.11676 12.75 4.01839 12.75H1.99526C1.85998 12.75 1.72504 12.7637 1.59251 12.7909C1.60376 12.5475 1.61389 12.3551 1.61651 12.2974C1.92554 6.56027 6.47126 2.23464 12.0681 2.23464C17.4419 2.23464 21.7743 6.10989 22.3705 11.4484C22.396 11.6711 22.4283 12.2374 22.4542 12.8059C22.3079 12.7721 22.1586 12.75 22.0034 12.75H20.0046C18.9059 12.75 18.0123 13.6436 18.0123 14.7424V21.2501C18.0123 22.3492 18.9059 23.2424 20.0046 23.2424H22.0034C23.1021 23.2424 23.9961 22.3488 23.9961 21.2501V14.7424C23.9961 14.6201 23.9811 14.5012 23.9594 14.3857C23.9811 14.3167 23.9954 14.2447 23.9962 14.1693V14.1694ZM1.99529 14.25H4.01766C4.28954 14.25 4.51039 14.4705 4.51039 14.7424V21.2734C4.51039 21.5456 4.28914 21.7657 4.01764 21.7657H1.99526C1.72339 21.7657 1.50289 21.5452 1.50289 21.2734V14.7424C1.50364 14.4705 1.72414 14.25 1.99529 14.25ZM22.4962 21.2497C22.4962 21.5216 22.2749 21.7421 22.0034 21.7421H20.0047C19.7328 21.7421 19.5123 21.5216 19.5123 21.2497V14.7424C19.5123 14.4705 19.7328 14.25 20.0047 14.25H22.0034C22.2753 14.25 22.4962 14.4705 22.4962 14.7424V21.2497Z" fill="#111827"/>
</svg>
