<svg width="48" height="48" viewBox="0 0 48 48" fill="none" xmlns="http://www.w3.org/2000/svg">
<rect width="48" height="48" rx="24" fill="#2563EB"/>
<path d="M14.1335 20.1814C13.8336 19.9672 13.6836 19.8601 13.5529 19.8462C13.3574 19.8254 13.1614 19.9262 13.0647 20.0974C13 20.2119 13 20.3942 13 20.7587V27.2413C13 28.0463 13 28.7106 13.0442 29.2518C13.0901 29.8139 13.1887 30.3306 13.436 30.816C13.8195 31.5686 14.4314 32.1805 15.184 32.564C15.6694 32.8113 16.1861 32.9099 16.7482 32.9558C17.2894 33 17.9537 33 18.7587 33H29.2413C30.0463 33 30.7106 33 31.2518 32.9558C31.8139 32.9099 32.3306 32.8113 32.816 32.564C33.5686 32.1805 34.1805 31.5686 34.564 30.816C34.8113 30.3306 34.9099 29.8139 34.9558 29.2518C35 28.7106 35 28.0463 35 27.2413V20.7587C35 20.58 35 20.4907 34.9836 20.4283C34.9096 20.1463 34.603 19.9856 34.329 20.0853C34.2684 20.1074 34.194 20.1589 34.0453 20.2618L26.3032 25.6219C25.7542 26.0032 25.2722 26.3379 24.7247 26.4706C24.2458 26.5867 23.7456 26.583 23.2685 26.4599C22.7229 26.3191 22.2459 25.9774 21.7026 25.5881L14.1335 20.1814Z" fill="white"/>
<path d="M34.1328 17.7687C34.3174 17.6409 34.4097 17.577 34.4664 17.4742C34.5104 17.3944 34.5356 17.268 34.5255 17.1775C34.5125 17.0608 34.463 16.9838 34.3638 16.8297C33.9839 16.2396 33.4373 15.7526 32.816 15.436C32.3306 15.1887 31.8139 15.0901 31.2518 15.0442C30.7106 15 30.0463 15 29.2413 15H18.7587C17.9537 15 17.2894 15 16.7482 15.0442C16.1861 15.0901 15.6694 15.1887 15.184 15.436C14.625 15.7208 14.1418 16.1326 13.7744 16.6333C13.6588 16.7909 13.601 16.8697 13.5819 16.9892C13.567 17.0827 13.5878 17.2126 13.6312 17.2967C13.6866 17.4044 13.7827 17.473 13.9749 17.6103L22.75 23.8783C23.4773 24.3977 23.6316 24.4881 23.7681 24.5233C23.9272 24.5644 24.0939 24.5656 24.2535 24.5269C24.3906 24.4937 24.5463 24.4056 25.281 23.8969L34.1328 17.7687Z" fill="white"/>
</svg>
