<svg width="20" height="15" viewBox="0 0 20 15" fill="none" xmlns="http://www.w3.org/2000/svg">
<mask id="mask0_1397_20400" style="mask-type:luminance" maskUnits="userSpaceOnUse" x="0" y="0" width="20" height="15">
<rect width="20" height="15" fill="white"/>
</mask>
<g mask="url(#mask0_1397_20400)">
<path fill-rule="evenodd" clip-rule="evenodd" d="M0 0V15H20V0H0Z" fill="#FFB400"/>
<mask id="mask1_1397_20400" style="mask-type:luminance" maskUnits="userSpaceOnUse" x="0" y="0" width="20" height="15">
<path fill-rule="evenodd" clip-rule="evenodd" d="M0 0V15H20V0H0Z" fill="white"/>
</mask>
<g mask="url(#mask1_1397_20400)">
<path fill-rule="evenodd" clip-rule="evenodd" d="M0 0V3.75H20V0H0Z" fill="#C51918"/>
<path fill-rule="evenodd" clip-rule="evenodd" d="M0 11.25V15H20V11.25H0Z" fill="#C51918"/>
<rect x="3.12988" y="6.41992" width="0.7" height="3.64" fill="#F1F9FF"/>
<path fill-rule="evenodd" clip-rule="evenodd" d="M4.1101 5.78992H2.8501V6.13992H3.0601V6.41992H3.9001V6.13992H4.1101V5.78992Z" fill="#C88A02"/>
<path fill-rule="evenodd" clip-rule="evenodd" d="M3.9001 10.27H4.1101V10.62H2.8501V10.27H3.0601V9.98999H3.9001V10.27Z" fill="#C88A02"/>
<path fill-rule="evenodd" clip-rule="evenodd" d="M3.47999 5.85997C3.63232 5.85997 3.64781 5.80261 3.73768 5.71693C3.80746 5.65041 3.96999 5.56791 3.96999 5.47497C3.96999 5.26234 3.75061 5.08997 3.47999 5.08997C3.20937 5.08997 2.98999 5.26234 2.98999 5.47497C2.98999 5.57851 3.10191 5.64774 3.18654 5.71693C3.2757 5.78983 3.34115 5.85997 3.47999 5.85997Z" fill="#AD1619"/>
<path fill-rule="evenodd" clip-rule="evenodd" d="M2.8501 10.62H4.1101V11.18C4.1101 11.18 3.9526 11.11 3.7951 11.11C3.6376 11.11 3.4801 11.18 3.4801 11.18C3.4801 11.18 3.3226 11.11 3.1651 11.11C3.0076 11.11 2.8501 11.18 2.8501 11.18V10.62Z" fill="#005BBF"/>
<mask id="mask2_1397_20400" style="mask-type:luminance" maskUnits="userSpaceOnUse" x="2" y="10" width="3" height="2">
<path fill-rule="evenodd" clip-rule="evenodd" d="M2.8501 10.62H4.1101V11.18C4.1101 11.18 3.9526 11.11 3.7951 11.11C3.6376 11.11 3.4801 11.18 3.4801 11.18C3.4801 11.18 3.3226 11.11 3.1651 11.11C3.0076 11.11 2.8501 11.18 2.8501 11.18V10.62Z" fill="white"/>
</mask>
<g mask="url(#mask2_1397_20400)">
<path d="M2.83878 11.0699L2.81128 11.0029C2.92477 10.9523 3.03866 10.927 3.15272 10.927C3.22641 10.927 3.26489 10.9373 3.33031 10.9664C3.38778 10.992 3.41756 10.9999 3.48041 10.9999C3.54325 10.9999 3.57304 10.992 3.6305 10.9664C3.69592 10.9373 3.73441 10.927 3.8081 10.927C3.92216 10.927 4.03605 10.9523 4.14954 11.0029L4.12204 11.0699C4.01706 11.0232 3.91249 10.9999 3.8081 10.9999C3.74525 10.9999 3.71547 11.0079 3.658 11.0334C3.59258 11.0626 3.5541 11.0728 3.48041 11.0728C3.40672 11.0728 3.36823 11.0626 3.30281 11.0334C3.24535 11.0079 3.21556 10.9999 3.15272 10.9999C3.04832 10.9999 2.94375 11.0232 2.83878 11.0699Z" fill="white"/>
<path d="M2.83878 10.8599L2.81128 10.7929C2.92477 10.7424 3.03866 10.717 3.15272 10.717C3.22641 10.717 3.26489 10.7273 3.33031 10.7564C3.38778 10.782 3.41756 10.79 3.48041 10.79C3.54325 10.79 3.57304 10.782 3.6305 10.7564C3.69592 10.7273 3.73441 10.717 3.8081 10.717C3.92216 10.717 4.03605 10.7424 4.14954 10.7929L4.12204 10.8599C4.01706 10.8132 3.91249 10.79 3.8081 10.79C3.74525 10.79 3.71547 10.7979 3.658 10.8235C3.59258 10.8526 3.5541 10.8629 3.48041 10.8629C3.40672 10.8629 3.36823 10.8526 3.30281 10.8235C3.24535 10.7979 3.21556 10.79 3.15272 10.79C3.04832 10.79 2.94375 10.8132 2.83878 10.8599Z" fill="white"/>
</g>
<rect x="9.98999" y="6.41992" width="0.7" height="3.64" fill="#F1F9FF"/>
<path fill-rule="evenodd" clip-rule="evenodd" d="M10.97 5.78992H9.70996V6.13992H9.91996V6.41992H10.76V6.13992H10.97V5.78992Z" fill="#C88A02"/>
<path fill-rule="evenodd" clip-rule="evenodd" d="M10.76 10.27H10.97V10.62H9.70996V10.27H9.91996V9.98999H10.76V10.27Z" fill="#C88A02"/>
<path fill-rule="evenodd" clip-rule="evenodd" d="M10.3401 5.85997C10.4924 5.85997 10.5079 5.80261 10.5978 5.71693C10.6676 5.65041 10.8301 5.56791 10.8301 5.47497C10.8301 5.26234 10.6107 5.08997 10.3401 5.08997C10.0695 5.08997 9.8501 5.26234 9.8501 5.47497C9.8501 5.57851 9.96202 5.64774 10.0466 5.71693C10.1358 5.78983 10.2013 5.85997 10.3401 5.85997Z" fill="#AD1619"/>
<path fill-rule="evenodd" clip-rule="evenodd" d="M9.70996 10.62H10.97V11.18C10.97 11.18 10.8125 11.11 10.655 11.11C10.4975 11.11 10.34 11.18 10.34 11.18C10.34 11.18 10.1825 11.11 10.025 11.11C9.86746 11.11 9.70996 11.18 9.70996 11.18V10.62Z" fill="#005BBF"/>
<mask id="mask3_1397_20400" style="mask-type:luminance" maskUnits="userSpaceOnUse" x="9" y="10" width="2" height="2">
<path fill-rule="evenodd" clip-rule="evenodd" d="M9.70996 10.62H10.97V11.18C10.97 11.18 10.8125 11.11 10.655 11.11C10.4975 11.11 10.34 11.18 10.34 11.18C10.34 11.18 10.1825 11.11 10.025 11.11C9.86746 11.11 9.70996 11.18 9.70996 11.18V10.62Z" fill="white"/>
</mask>
<g mask="url(#mask3_1397_20400)">
<path d="M9.69864 11.0699L9.67114 11.0029C9.78463 10.9523 9.89852 10.927 10.0126 10.927C10.0863 10.927 10.1248 10.9373 10.1902 10.9664C10.2476 10.992 10.2774 10.9999 10.3403 10.9999C10.4031 10.9999 10.4329 10.992 10.4904 10.9664C10.5558 10.9373 10.5943 10.927 10.668 10.927C10.782 10.927 10.8959 10.9523 11.0094 11.0029L10.9819 11.0699C10.8769 11.0232 10.7724 10.9999 10.668 10.9999C10.6051 10.9999 10.5753 11.0079 10.5179 11.0334C10.4524 11.0626 10.414 11.0728 10.3403 11.0728C10.2666 11.0728 10.2281 11.0626 10.1627 11.0334C10.1052 11.0079 10.0754 10.9999 10.0126 10.9999C9.90819 10.9999 9.80362 11.0232 9.69864 11.0699Z" fill="white"/>
<path d="M9.69864 10.8599L9.67114 10.7929C9.78463 10.7424 9.89852 10.717 10.0126 10.717C10.0863 10.717 10.1248 10.7273 10.1902 10.7564C10.2476 10.782 10.2774 10.79 10.3403 10.79C10.4031 10.79 10.4329 10.782 10.4904 10.7564C10.5558 10.7273 10.5943 10.717 10.668 10.717C10.782 10.717 10.8959 10.7424 11.0094 10.7929L10.9819 10.8599C10.8769 10.8132 10.7724 10.79 10.668 10.79C10.6051 10.79 10.5753 10.7979 10.5179 10.8235C10.4524 10.8526 10.414 10.8629 10.3403 10.8629C10.2666 10.8629 10.2281 10.8526 10.1627 10.8235C10.1052 10.7979 10.0754 10.79 10.0126 10.79C9.90819 10.79 9.80362 10.8132 9.69864 10.8599Z" fill="white"/>
</g>
<path fill-rule="evenodd" clip-rule="evenodd" d="M3.11747 9.79993C3.24367 9.64692 3.31425 9.50773 3.31425 9.35989C3.31425 9.26667 3.28651 9.18616 3.23791 9.12039L3.24612 9.11669C3.24536 9.11704 3.38457 9.05636 3.43303 9.03312C3.52313 8.98992 3.6025 8.94416 3.67989 8.88788C3.7293 8.85195 3.7955 8.81282 3.89641 8.75863L3.99125 8.70819L4.01685 8.69459C4.06589 8.66843 4.10242 8.64837 4.13635 8.62869C4.24208 8.56736 4.31195 8.51667 4.36539 8.4489C4.49196 8.2884 4.46568 8.07082 4.28831 7.95006C4.20141 7.89089 4.08415 7.85694 3.91225 7.83022L3.87665 7.82471L3.6664 7.79212C3.58415 7.7792 3.51075 7.76714 3.44531 7.75571C3.87566 7.6841 4.49019 7.71042 4.7605 7.84999L5.01741 7.35239C4.46657 7.06799 3.21149 7.09703 2.74265 7.4199C2.39878 7.65672 2.44492 8.0147 2.80271 8.16885C2.95221 8.23326 3.1471 8.276 3.50776 8.33394C3.44732 8.369 3.39721 8.40103 3.35052 8.43498C3.30318 8.46942 3.25245 8.49866 3.19092 8.52816C3.16149 8.54227 3.07434 8.58054 3.0344 8.59808L3.01432 8.60692C2.72289 8.73943 2.58146 8.92274 2.62372 9.25366L2.6466 9.43279L2.68764 9.4454L3.11747 9.79993ZM2.75723 9.337L2.75634 9.33958L2.75702 9.33775L2.75723 9.337ZM10.4412 9.35989C10.4412 9.50773 10.5118 9.64692 10.638 9.79993L11.0678 9.4454L11.1089 9.43279L11.1317 9.25366C11.174 8.92274 11.0326 8.73943 10.7411 8.60692L10.7211 8.59808L10.721 8.59804C10.681 8.58049 10.594 8.54226 10.5645 8.52816C10.503 8.49866 10.4523 8.46942 10.4049 8.43498C10.3583 8.40103 10.3081 8.369 10.2477 8.33394C10.6084 8.276 10.8033 8.23326 10.9528 8.16885C11.3105 8.0147 11.3567 7.65672 11.0128 7.4199C10.544 7.09703 9.2889 7.06799 8.73806 7.35239L8.99497 7.84999C9.26528 7.71042 9.8798 7.6841 10.3102 7.75571C10.2447 7.76714 10.1713 7.7792 10.0891 7.79212L9.87879 7.82472L9.84321 7.83022C9.67132 7.85694 9.55405 7.89089 9.46715 7.95006C9.28978 8.07082 9.2635 8.2884 9.39008 8.4489C9.44352 8.51667 9.51339 8.56736 9.61912 8.62869C9.65305 8.64837 9.68957 8.66843 9.73862 8.69459L9.76429 8.70823L9.85905 8.75863C9.95997 8.81282 10.0262 8.85195 10.0756 8.88788C10.153 8.94416 10.2323 8.98992 10.3224 9.03312C10.3709 9.05636 10.5101 9.11704 10.5093 9.11669L10.5176 9.12039C10.469 9.18616 10.4412 9.26667 10.4412 9.35989Z" fill="#AD1619"/>
<path d="M3.70198 7.75L3.9086 7.79274V8.1007C3.68854 8.27629 3.12988 8.57223 3.12988 8.57223V7.75H3.70198Z" fill="#F1F9FF"/>
<path d="M10.1967 7.75L9.99009 7.79274V8.1007C10.2101 8.27629 10.7688 8.57223 10.7688 8.57223V7.75H10.1967Z" fill="#F1F9FF"/>
<path fill-rule="evenodd" clip-rule="evenodd" d="M9.23497 4.50374V4.40125C8.87492 4.14284 8.49787 4.01364 8.10382 4.01364C7.72606 3.84647 7.34369 3.78158 6.95671 3.81897C6.95681 3.81777 6.95687 3.81717 6.95687 3.81717C6.37501 3.76023 5.78861 4.01364 5.78861 4.01364C5.19755 4.01364 4.65747 4.40125 4.65747 4.40125V4.50374L5.36349 5.21282C5.36349 5.21282 5.56222 5.89531 6.95399 5.73491V5.73664C6.95399 5.73664 7.87546 5.71149 7.94021 5.68995C7.9659 5.68141 7.99254 5.67363 8.01977 5.66568C8.20026 5.61299 8.4063 5.55283 8.52895 5.21282L9.23497 4.50374ZM6.95399 3.85033C6.9339 4.0864 6.81917 5.50948 6.95399 5.73011V3.85033Z" fill="#AD1619"/>
<path fill-rule="evenodd" clip-rule="evenodd" d="M5.19593 5.09346L5.1964 5.0913L4.69971 4.624L4.74767 4.57301L5.21375 5.01151L5.22568 4.95665C5.30193 4.97323 5.35766 4.97933 5.39014 4.97588V4.88075L5.49346 4.93667C5.54428 4.96417 5.61706 4.97156 5.71291 4.95596C5.78331 4.94451 5.83081 4.86275 5.84635 4.68852L5.87771 4.33679L5.98289 4.67388C6.03049 4.82642 6.10311 4.89366 6.20648 4.89366C6.30745 4.89366 6.34803 4.85665 6.35251 4.76335L6.36522 4.49874L6.48488 4.73508C6.52799 4.82023 6.58744 4.85886 6.67198 4.85886C6.79288 4.85886 6.87365 4.75807 6.87365 4.59991H6.87593H7.01365H7.01593C7.01593 4.75807 7.0967 4.85886 7.2176 4.85886C7.30214 4.85886 7.36159 4.82023 7.4047 4.73508L7.52437 4.49874L7.53707 4.76335C7.54155 4.85665 7.58214 4.89366 7.6831 4.89366C7.78648 4.89366 7.85909 4.82642 7.90669 4.67388L8.01187 4.33679L8.04323 4.68852C8.05877 4.86275 8.10627 4.94451 8.17667 4.95596C8.27253 4.97156 8.3453 4.96417 8.39612 4.93667L8.49944 4.88075V4.97588C8.53192 4.97933 8.58765 4.97323 8.6639 4.95665L8.68604 5.05844L9.202 4.57301L9.24996 4.624L8.6079 5.22807C8.51422 5.40058 8.46705 5.51445 8.46705 5.56175C8.46705 5.63392 8.27931 5.67675 7.9129 5.72074C7.62584 5.75521 7.28707 5.77834 7.00996 5.7818V5.78225L6.97484 5.78213L6.93971 5.78225V5.7818C6.6626 5.77834 6.32383 5.75521 6.03678 5.72074C5.67036 5.67675 5.48262 5.63392 5.48262 5.56175C5.48262 5.55281 5.48093 5.54147 5.47756 5.52782C5.44061 5.48076 5.41463 5.40379 5.39735 5.33435C5.38113 5.30188 5.3626 5.26642 5.34177 5.22807L5.19952 5.09423L5.19593 5.09346ZM8.63684 5.10473C8.5222 5.12502 8.43941 5.12297 8.39549 5.08721C8.32679 5.1072 8.2462 5.10912 8.15419 5.09415C8.05592 5.07816 7.98748 5.01279 7.9463 4.90435C7.89254 4.97284 7.82456 5.01512 7.74314 5.02879C8.19109 5.09232 8.50488 5.18162 8.50488 5.18162C8.50488 5.18162 8.49714 5.24796 8.47832 5.32596C8.49824 5.28513 8.52182 5.23976 8.54909 5.18968L8.55585 5.18093L8.63684 5.10473ZM7.53176 5.00219C7.4928 4.98283 7.46169 4.95476 7.4392 4.91858C7.4058 4.94808 7.36782 4.96965 7.32563 4.98296C7.39606 4.98835 7.46493 4.99486 7.53176 5.00219ZM7.07851 4.96934C7.02398 4.94414 6.97865 4.90379 6.94479 4.85209C6.91117 4.90343 6.86624 4.94357 6.81222 4.9688C6.84422 4.96785 6.87641 4.96718 6.90874 4.96682V4.9665L6.93681 4.96658L6.96488 4.9665V4.96682C7.00298 4.96724 7.04088 4.9681 7.07851 4.96934ZM5.38873 5.17614L5.32346 5.11473C5.40181 5.1225 5.4598 5.11513 5.49409 5.08721C5.5628 5.1072 5.64338 5.10912 5.73539 5.09415C5.83367 5.07816 5.9021 5.01279 5.94328 4.90435C5.99549 4.97086 6.06109 5.01265 6.1394 5.02754C5.75318 5.0818 5.46503 5.15562 5.38873 5.17614ZM6.56091 4.98199C6.4931 4.98702 6.42669 4.99312 6.36213 4.99999C6.39908 4.98073 6.42873 4.95342 6.45038 4.91858C6.48298 4.94737 6.51994 4.96861 6.56091 4.98199ZM8.283 5.56312C8.33205 5.58608 8.37137 5.56318 8.40245 5.51923C8.39976 5.53137 8.39807 5.54234 8.3974 5.55217C8.39329 5.55486 8.387 5.5581 8.37874 5.56157C8.35568 5.57126 8.32046 5.58159 8.27465 5.59204C8.18461 5.61258 8.05645 5.633 7.90455 5.65124C7.60793 5.68685 7.25523 5.71029 6.97484 5.71213C6.69444 5.71029 6.34174 5.68685 6.04512 5.65124C5.89323 5.633 5.76506 5.61258 5.67502 5.59204C5.63662 5.58328 5.60567 5.57461 5.58308 5.56632C5.58556 5.56538 5.58807 5.56431 5.59061 5.56312C5.74353 5.49157 6.75471 5.42442 6.93681 5.41284C7.11891 5.42442 8.13009 5.49157 8.283 5.56312ZM8.47584 5.5503L8.47478 5.55153L8.47542 5.55064L8.47584 5.5503Z" fill="#C88A02"/>
<path fill-rule="evenodd" clip-rule="evenodd" d="M6.94511 3.34187C7.06109 3.34187 7.15511 3.24785 7.15511 3.13187C7.15511 3.0159 7.06109 2.92188 6.94511 2.92188C6.82913 2.92188 6.73511 3.0159 6.73511 3.13187C6.73511 3.24785 6.82913 3.34187 6.94511 3.34187Z" fill="#005BBF"/>
<path fill-rule="evenodd" clip-rule="evenodd" d="M6.80857 4.37293C6.81305 4.39598 6.82004 4.41744 6.82889 4.43656C6.80176 4.4262 6.76956 4.4202 6.73503 4.4202C6.63838 4.4202 6.56003 4.46721 6.56003 4.5252C6.56003 4.58319 6.63838 4.6302 6.73503 4.6302C6.83168 4.6302 6.91003 4.58319 6.91003 4.5252C6.91003 4.58319 6.98838 4.6302 7.08503 4.6302C7.18168 4.6302 7.26003 4.58319 7.26003 4.5252C7.26003 4.46721 7.18168 4.4202 7.08503 4.4202C7.0607 4.4202 7.03753 4.42318 7.01648 4.42856C7.02155 4.39985 7.02133 4.36694 7.01471 4.33286C6.99627 4.23799 6.93517 4.17005 6.87825 4.18111C6.82132 4.19218 6.79012 4.27806 6.80857 4.37293ZM6.91003 4.5252L6.90995 4.52199L6.91011 4.52204L6.91003 4.5252ZM5.77889 4.50656C5.77004 4.48744 5.76305 4.46598 5.75857 4.44293C5.74012 4.34806 5.77132 4.26218 5.82825 4.25111C5.88517 4.24005 5.94627 4.30799 5.96471 4.40286C5.97133 4.43694 5.97155 4.46985 5.96648 4.49856C5.98753 4.49318 6.0107 4.4902 6.03503 4.4902C6.13168 4.4902 6.21003 4.53721 6.21003 4.5952C6.21003 4.65319 6.13168 4.7002 6.03503 4.7002C5.93838 4.7002 5.86003 4.65319 5.86003 4.5952L5.86011 4.59204L5.85995 4.59199L5.86003 4.5952C5.86003 4.65319 5.78168 4.7002 5.68503 4.7002C5.58838 4.7002 5.51003 4.65319 5.51003 4.5952C5.51003 4.53721 5.58838 4.4902 5.68503 4.4902C5.71956 4.4902 5.75176 4.4962 5.77889 4.50656ZM7.97124 4.57055C7.96316 4.62797 7.87903 4.66362 7.78333 4.65017C7.68762 4.63672 7.61657 4.57926 7.62464 4.52184C7.63271 4.46441 7.71684 4.42876 7.81255 4.44221C7.84675 4.44702 7.8778 4.45745 7.90322 4.47148C7.89712 4.45131 7.89318 4.42909 7.89195 4.40564C7.88689 4.30913 7.92974 4.22842 7.98765 4.22539C8.04556 4.22235 8.09661 4.29814 8.10166 4.39465C8.10348 4.42932 8.09912 4.46194 8.0901 4.48966C8.11169 4.48726 8.13505 4.48754 8.15915 4.49092C8.25485 4.50438 8.3259 4.56183 8.31783 4.61926C8.30976 4.67668 8.22563 4.71233 8.12992 4.69888C8.03421 4.68543 7.96316 4.62797 7.97124 4.57055ZM7.97124 4.57055L7.9716 4.56736L7.97175 4.56744L7.97124 4.57055ZM8.63775 4.84821C8.72308 4.89358 8.81433 4.88886 8.84156 4.83765L8.84299 4.83479C8.8514 4.84369 8.86135 4.85016 8.8727 4.85363C8.92816 4.87059 8.99602 4.8094 9.02428 4.71698C9.05254 4.62455 9.03049 4.53588 8.97503 4.51892C8.91957 4.50197 8.85171 4.56315 8.82345 4.65558C8.81659 4.67803 8.81269 4.70026 8.81152 4.7213C8.79244 4.69942 8.76683 4.679 8.73633 4.66279C8.651 4.61741 8.55975 4.62214 8.53252 4.67334C8.5053 4.72454 8.55241 4.80283 8.63775 4.84821ZM5.20304 4.86965C5.1177 4.91502 5.02645 4.9103 4.99923 4.8591C4.99873 4.85815 4.99825 4.8572 4.9978 4.85623C4.98939 4.86513 4.97944 4.8716 4.96808 4.87507C4.91263 4.89203 4.84477 4.83085 4.81651 4.73842C4.78825 4.64599 4.8103 4.55732 4.86575 4.54037C4.92121 4.52341 4.98907 4.5846 5.01733 4.67702C5.0242 4.69948 5.02809 4.72171 5.02926 4.74274C5.04834 4.72086 5.07396 4.70044 5.10445 4.68423C5.18979 4.63886 5.28104 4.64358 5.30826 4.69478C5.33549 4.74598 5.28838 4.82428 5.20304 4.86965Z" fill="#C88A02"/>
<path fill-rule="evenodd" clip-rule="evenodd" d="M6.86679 2.54785H7.01262V2.63998H7.10791V2.78581H7.01262V3.07748H7.10791V3.22331H6.77002V3.07748H6.86679V2.78581H6.77002V2.63998H6.86679V2.54785Z" fill="#C88A02"/>
<rect x="6.84009" y="3.33997" width="0.28" height="0.91" fill="#C88A02"/>
<path d="M5.71286 3.49235L5.71164 3.56234C5.09095 3.5515 4.73492 3.64208 4.64454 3.82261C4.5511 4.00925 4.56848 4.23614 4.6994 4.50566L4.63644 4.53624C4.49675 4.24868 4.47767 3.99956 4.58194 3.79127C4.68928 3.57687 5.06591 3.48105 5.71286 3.49235Z" fill="white"/>
<path d="M5.83295 4.11309L5.79706 4.17319C5.66189 4.09249 5.59424 3.95475 5.59424 3.76494C5.59424 3.49214 5.73477 3.33217 6.04561 3.22269C6.244 3.15282 6.51501 3.18147 6.85939 3.30633L6.83553 3.37214C6.50493 3.25228 6.24912 3.22523 6.06886 3.28872C5.78375 3.38913 5.66424 3.52518 5.66424 3.76494C5.66424 3.93151 5.72043 4.04591 5.83295 4.11309Z" fill="white"/>
<path d="M4.78763 4.39833L4.65554 4.44472C4.51849 4.05451 4.55763 3.7895 4.79181 3.67518C4.99816 3.57445 5.2989 3.53346 5.69553 3.54953L5.68986 3.68942C5.31434 3.6742 5.03496 3.71228 4.85322 3.80099C4.69932 3.87612 4.67117 4.06674 4.78763 4.39833Z" fill="#C88A02"/>
<path d="M6.33082 3.39916C6.01074 3.39916 5.87929 3.47711 5.8042 3.70729C5.75634 3.85398 5.80275 3.97918 5.95325 4.09604L5.86738 4.20662C5.67254 4.05532 5.60385 3.87002 5.6711 3.66387C5.7668 3.37053 5.95459 3.25916 6.33082 3.25916C6.57742 3.25916 6.76952 3.32394 6.90327 3.45579L6.92413 3.47635V4.15133H6.78413V3.53619C6.67967 3.44546 6.52962 3.39916 6.33082 3.39916Z" fill="#C88A02"/>
<path d="M8.15555 3.56241L8.15677 3.6324C8.77746 3.62157 9.13349 3.71215 9.22387 3.89268C9.31731 4.07932 9.29993 4.30621 9.16901 4.57573L9.23197 4.60631C9.37166 4.31875 9.39074 4.06963 9.28646 3.86134C9.17913 3.64694 8.80249 3.55112 8.15555 3.56241Z" fill="white"/>
<path d="M7.93634 4.12762L7.97223 4.18772C8.1074 4.10701 8.17505 3.96928 8.17505 3.77946C8.17505 3.50666 8.03452 3.34669 7.72368 3.23722C7.52529 3.16735 7.25428 3.196 6.9099 3.32086L6.93375 3.38667C7.26436 3.2668 7.52017 3.23976 7.70042 3.30324C7.98554 3.40366 8.10505 3.5397 8.10505 3.77946C8.10505 3.94603 8.04886 4.06044 7.93634 4.12762Z" fill="white"/>
<path d="M9.12448 4.4684L9.25657 4.51479C9.39362 4.12457 9.35448 3.85957 9.1203 3.74525C8.91394 3.64452 8.61321 3.60353 8.21658 3.6196L8.22225 3.75948C8.59777 3.74427 8.87715 3.78235 9.05889 3.87106C9.21279 3.94619 9.24094 4.13681 9.12448 4.4684Z" fill="#C88A02"/>
<path d="M7.57323 3.41002C7.89332 3.41002 8.02476 3.48798 8.09986 3.71816C8.14771 3.86485 8.1013 3.99004 7.95081 4.10691L8.03667 4.21748C8.23151 4.06618 8.30021 3.88088 8.23295 3.67474C8.13725 3.38139 7.94947 3.27002 7.57323 3.27002C7.32663 3.27002 7.13454 3.33481 7.00078 3.46666L6.97992 3.48722V4.1622H7.11992V3.54706C7.22439 3.45632 7.37444 3.41002 7.57323 3.41002Z" fill="#C88A02"/>
<path opacity="0.3" fill-rule="evenodd" clip-rule="evenodd" d="M4.66992 5.79004H9.21992V9.87806C9.21992 9.87806 8.88194 11.25 6.94492 11.25C5.00791 11.25 4.66992 9.84188 4.66992 9.84188V5.79004Z" fill="#E1E5E8"/>
<mask id="mask4_1397_20400" style="mask-type:luminance" maskUnits="userSpaceOnUse" x="4" y="5" width="6" height="7">
<path fill-rule="evenodd" clip-rule="evenodd" d="M4.66992 5.79004H9.21992V9.87806C9.21992 9.87806 8.88194 11.25 6.94492 11.25C5.00791 11.25 4.66992 9.84188 4.66992 9.84188V5.79004Z" fill="white"/>
</mask>
<g mask="url(#mask4_1397_20400)">
<rect x="4.66992" y="8.31006" width="2.31" height="2.73" fill="#FFC034"/>
<rect x="4.94995" y="8.45007" width="0.28" height="2.59" fill="#AD1619"/>
<rect x="5.92993" y="8.45007" width="0.28" height="2.59" fill="#AD1619"/>
<rect x="5.43994" y="8.45007" width="0.28" height="2.59" fill="#AD1619"/>
<rect x="6.41992" y="8.45007" width="0.28" height="2.59" fill="#AD1619"/>
<rect x="4.66992" y="5.72009" width="2.31" height="2.66" fill="#AD1619"/>
<rect x="6.90991" y="8.23999" width="2.31" height="2.66" fill="#AD1619"/>
<rect x="6.90991" y="5.79004" width="2.45" height="2.59" fill="#F1F9FF"/>
<path fill-rule="evenodd" clip-rule="evenodd" d="M5.64991 6H5.85991V6.58074H5.99991V6.29037H6.20991V6.58074H6.41991V6.9437H6.20991V7.59704H6.41991V7.96H5.15991V7.59704H5.36991V6.9437H5.15991V6.58074H5.29991V6.29037H5.50991V6.58074H5.64991V6Z" fill="#C88A02"/>
<path d="M8.11157 6.12197L8.25493 5.96851L8.55589 6.24965L8.41253 6.40311L8.11157 6.12197Z" fill="#C88A02"/>
<path fill-rule="evenodd" clip-rule="evenodd" d="M8.97485 10.0876V8.55505H7.22485V10.0748L7.22763 10.0866C7.31622 10.4641 7.6179 10.6551 8.09985 10.6551C8.58134 10.6551 8.88298 10.469 8.97193 10.0997L8.97485 10.0876ZM8.09985 10.4451C7.71316 10.4451 7.50199 10.3148 7.43485 10.05V8.76505H8.76485V10.0622C8.69789 10.3183 8.4867 10.4451 8.09985 10.4451Z" fill="#FFC034"/>
<path fill-rule="evenodd" clip-rule="evenodd" d="M8.17217 8.68311H8.02634V9.3779L7.45145 8.75264L7.34839 8.84739L7.86829 9.41285H7.39723V9.62285H7.75909H7.87975L7.34839 10.2008L7.45145 10.2955L8.02634 9.67027V10.4824H8.17217V9.74335L8.67986 10.2955L8.78292 10.2008L8.25156 9.62285H8.84466V9.41285H8.26302L8.78292 8.84739L8.67986 8.75264L8.17217 9.30481V8.68311Z" fill="#FFC034"/>
<path fill-rule="evenodd" clip-rule="evenodd" d="M8.42672 10.9017C8.42672 10.9017 6.9441 11.0182 6.9441 10.062C6.9441 10.062 6.92996 10.9017 5.38184 10.9017V11.6566H8.42672V10.9017Z" fill="#F1F9FF"/>
<path fill-rule="evenodd" clip-rule="evenodd" d="M6.94492 8.87C7.23487 8.87 7.46992 8.61928 7.46992 8.31C7.46992 8.00072 7.23487 7.75 6.94492 7.75C6.65497 7.75 6.41992 8.00072 6.41992 8.31C6.41992 8.61928 6.65497 8.87 6.94492 8.87Z" fill="#005BBF" stroke="#AD1619" stroke-width="0.729167"/>
</g>
</g>
</g>
</svg>
