<svg width="71" height="26" viewBox="0 0 71 26" fill="none" xmlns="http://www.w3.org/2000/svg">
<rect width="71" height="26" rx="13" fill="#FF4747"/>
<path fill-rule="evenodd" clip-rule="evenodd" d="M18 17C18 15.8954 18.8955 15 20 15C21.1046 15 22 15.8954 22 17V18.3333C22 19.4379 21.1046 20.3333 20 20.3333C18.8955 20.3333 18 19.4379 18 18.3333V17Z" fill="white"/>
<path fill-rule="evenodd" clip-rule="evenodd" d="M13.3334 12.1899C13.3334 8.57219 16.3335 5.66663 20 5.66663C23.6666 5.66663 26.6667 8.57219 26.6667 12.1899C26.6667 14.4212 25.5192 16.38 23.7861 17.5522C23.4811 17.7585 23.0667 17.6784 22.8604 17.3734C22.6541 17.0685 22.7342 16.654 23.0391 16.4477C24.4306 15.5067 25.3334 13.9492 25.3334 12.1899C25.3334 9.33879 22.9608 6.99996 20 6.99996C17.0393 6.99996 14.6667 9.33879 14.6667 12.1899C14.6667 13.9492 15.5695 15.5067 16.9609 16.4477C17.2659 16.654 17.346 17.0685 17.1397 17.3734C16.9334 17.6784 16.519 17.7585 16.214 17.5522C14.4809 16.38 13.3334 14.4212 13.3334 12.1899Z" fill="white"/>
<path fill-rule="evenodd" clip-rule="evenodd" d="M20 9.66663C18.4949 9.66663 17.3334 10.818 17.3334 12.167C17.3334 12.8167 17.6002 13.4127 18.0471 13.8644C18.306 14.1262 18.3038 14.5483 18.042 14.8072C17.7803 15.0662 17.3582 15.0639 17.0992 14.8022C16.4249 14.1206 16 13.1947 16 12.167C16 10.0181 17.8236 8.33329 20 8.33329C22.1765 8.33329 24 10.0181 24 12.167C24 13.1954 23.5751 14.1206 22.9009 14.8022C22.6419 15.0639 22.2198 15.0662 21.9581 14.8072C21.6963 14.5483 21.6941 14.1262 21.953 13.8644C22.4 13.4126 22.6667 12.8172 22.6667 12.167C22.6667 10.818 21.5052 9.66663 20 9.66663Z" fill="white"/>
<path fill-rule="evenodd" clip-rule="evenodd" d="M18.6667 12.3333C18.6667 11.5969 19.2637 11 20 11C20.7364 11 21.3334 11.5969 21.3334 12.3333C21.3334 13.0697 20.7364 13.6666 20 13.6666C19.2637 13.6666 18.6667 13.0697 18.6667 12.3333Z" fill="white"/>
<path d="M42.0293 15.8633V17H36.7793V8.54492H38.0918V15.8633H42.0293ZM43.443 17V10.8359H44.7086V17H43.443ZM44.0758 9.93359C43.6715 9.93359 43.3434 9.61133 43.3434 9.21289C43.3434 8.80859 43.6715 8.48633 44.0758 8.48633C44.4859 8.48633 44.8141 8.80859 44.8141 9.21289C44.8141 9.61133 44.4859 9.93359 44.0758 9.93359ZM51.6652 10.8359L49.4563 17H48.0969L45.8762 10.8359H47.2238L48.7707 15.7637H48.7941L50.341 10.8359H51.6652ZM55.1941 11.7441C54.3094 11.7441 53.6883 12.418 53.6238 13.3496H56.7059C56.6766 12.4062 56.0789 11.7441 55.1941 11.7441ZM56.7 15.1895H57.9012C57.7254 16.3145 56.659 17.1172 55.2469 17.1172C53.4363 17.1172 52.3406 15.8926 52.3406 13.9473C52.3406 12.0137 53.4539 10.7246 55.1941 10.7246C56.9051 10.7246 57.9715 11.9316 57.9715 13.8008V14.2344H53.618V14.3105C53.618 15.3828 54.2625 16.0918 55.2762 16.0918C55.9969 16.0918 56.5301 15.7285 56.7 15.1895Z" fill="white"/>
</svg>
