<svg width="32" height="32" viewBox="0 0 32 32" fill="none" xmlns="http://www.w3.org/2000/svg">
<g clip-path="url(#clip0_207_591)">
<path d="M3.29816 12.6345C1.49202 12.6345 0 14.3384 0 16.1254C0 18.7852 2.19877 19.6579 3.2589 19.6579C6.87117 19.6579 10.6012 19.6579 14.2135 19.6579L4.90798 13.0917C4.43681 12.8008 3.84785 12.6345 3.29816 12.6345Z" fill="#FCCC12"/>
<path d="M5.85032 4.94629C4.7902 4.94629 3.73007 5.48655 3.18038 6.40083C1.80615 8.64499 3.18038 10.5982 4.08345 11.2216C7.10676 13.3411 10.3657 15.7515 13.389 17.871L8.83437 6.89954C8.55952 6.35928 8.20615 5.86057 7.73498 5.52811C7.14602 5.11252 6.5178 4.94629 5.85032 4.94629Z" fill="#FF7112"/>
<path d="M28.7018 12.6345C30.508 12.6345 32 14.3384 32 16.1254C32 18.7852 29.8012 19.6579 28.7411 19.6579C25.1288 19.6579 21.3988 19.6579 17.7865 19.6579L27.092 13.0917C27.5632 12.8008 28.1129 12.6345 28.7018 12.6345Z" fill="#05AC3F"/>
<path d="M12.0932 0.000610352C11.6613 0.000610352 11.2687 0.0837272 10.8761 0.291519C8.55949 1.4136 8.75581 3.82399 9.22698 4.86295L13.7423 15.9591L15.4307 3.86555C15.4699 3.24217 15.4307 2.61879 15.1951 2.07853C14.6454 0.790221 13.3497 0.000610352 12.0932 0.000610352Z" fill="#EF1541"/>
<path d="M19.8282 0.000610352C18.5718 0.000610352 17.3939 0.54087 16.7264 2.07853C16.5301 2.57723 16.4515 3.15905 16.4515 3.69931H18.0221C18.4147 3.69931 18.5718 3.86555 18.6896 3.99022C18.8074 4.1149 18.7681 4.15645 18.6896 4.19801C18.1006 4.40581 16.8049 5.15386 16.8049 6.23438L16.9227 7.1071L18.1791 16.0006L22.773 4.86295C23.2049 3.82399 23.3227 1.4136 21.0454 0.291519C20.692 0.0837272 20.2601 0.000610352 19.8282 0.000610352Z" fill="#6E55DC"/>
<path d="M1.76685 21.9437V31.7514H3.84783V25.5177L8.28464 31.7514H10.4441L10.4834 31.7099V21.9021H8.36316V28.0527L3.96562 21.9437H1.76685Z" fill="black"/>
<path d="M12.2111 21.9437V31.7515H14.292H17.7473C19.043 31.7515 20.8884 31.2528 20.8884 28.7178C20.8884 27.5541 20.4565 26.9723 19.5534 26.4736C20.2209 26.058 20.5743 25.6424 20.5743 24.6866C20.5743 22.7749 19.043 21.9437 17.7473 21.9437H12.2111ZM14.292 23.897H17.6295C18.1006 23.897 18.4147 24.3126 18.4147 24.7697C18.4147 25.2268 17.9828 25.6009 17.6295 25.6009H17.5902H14.292V23.897ZM14.292 27.5126H17.4331H17.4724C18.2184 27.5126 18.7289 27.9697 18.7289 28.6346C18.7289 29.3411 18.2184 29.7152 17.4724 29.7152H14.292V27.5126Z" fill="black"/>
<path d="M26.9742 21.6527C24.1865 21.6527 21.9092 24.0215 21.9092 26.806C21.9092 29.0917 23.4797 31.8761 27.0135 31.9592C29.1337 31.9592 30.2331 31.0034 31.2932 30.0475L29.8405 28.3436C29.3693 28.967 28.1914 29.6735 27.1705 29.6735C25.2466 29.6735 24.1472 28.3021 24.1472 26.9306C24.1472 25.3514 25.4037 24.0215 27.0135 24.0215C27.9165 24.0215 28.7411 24.4787 29.4086 25.1852L30.9399 23.5644C30.0368 22.4008 28.4662 21.6527 26.9742 21.6527Z" fill="black"/>
<path d="M26.1104 4.94629C27.1705 4.94629 28.2306 5.48655 28.7803 6.40083C30.1546 8.64499 28.7803 10.5982 27.8773 11.2216C24.8539 13.3411 21.5558 15.7515 18.5325 17.871L23.1656 6.89954C23.4404 6.35928 23.7938 5.86057 24.265 5.52811C24.8539 5.11252 25.4822 4.94629 26.1104 4.94629Z" fill="#069DE0"/>
</g>
<defs>
<clipPath id="clip0_207_591">
<rect width="32" height="32" fill="white"/>
</clipPath>
</defs>
</svg>
