<svg width="24" height="24" viewBox="0 0 24 24" fill="none" xmlns="http://www.w3.org/2000/svg">
<path fill-rule="evenodd" clip-rule="evenodd" d="M13.0687 5.80853C13.1744 5.26647 13.6996 4.91277 14.2416 5.01853C15.4137 5.24721 16.4909 5.82044 17.3353 6.66486C18.1797 7.50927 18.753 8.58645 18.9816 9.75853C19.0874 10.3006 18.7337 10.8258 18.1916 10.9315C17.6496 11.0373 17.1244 10.6836 17.0187 10.1415C16.8662 9.36013 16.484 8.64201 15.9211 8.07907C15.3582 7.51613 14.64 7.13397 13.8587 6.98152C13.3166 6.87576 12.9629 6.3506 13.0687 5.80853Z" fill="#111827"/>
<path fill-rule="evenodd" clip-rule="evenodd" d="M13.0563 1.88961C13.1172 1.34071 13.6117 0.945162 14.1606 1.00614C16.4153 1.25663 18.5179 2.26634 20.1231 3.86948C21.7282 5.47263 22.7406 7.57393 22.9939 9.82836C23.0556 10.3772 22.6606 10.8721 22.1118 10.9338C21.563 10.9954 21.0681 10.6005 21.0064 10.0517C20.8037 8.24814 19.9939 6.5671 18.7097 5.28459C17.4256 4.00207 15.7435 3.1943 13.9397 2.99391C13.3908 2.93293 12.9953 2.43852 13.0563 1.88961Z" fill="#111827"/>
<path fill-rule="evenodd" clip-rule="evenodd" d="M6.33804 17.7522C3.90413 15.3183 2.13431 12.2873 1.19373 8.97807C1.04622 8.45906 0.931832 8.05659 0.930189 7.5047C0.928311 6.87393 1.13382 6.08369 1.44275 5.53374C1.97403 4.58797 3.11479 3.37592 4.10012 2.87755C4.95146 2.44694 5.95686 2.44694 6.8082 2.87755C7.64386 3.30021 8.60242 4.27862 9.11134 5.06137C9.75783 6.05571 9.75783 7.33757 9.11134 8.33191C8.9381 8.59836 8.69117 8.84487 8.40451 9.13105C8.31525 9.22016 8.217 9.28455 8.28225 9.42043C8.93007 10.7697 9.81356 12.0353 10.9342 13.156C12.0549 14.2767 13.3205 15.1602 14.6698 15.808C14.8095 15.8751 14.8667 15.7783 14.9592 15.6857C15.2454 15.3991 15.4919 15.1521 15.7583 14.9789C16.7527 14.3324 18.0345 14.3324 19.0289 14.9789C19.8116 15.4878 20.79 16.4464 21.2127 17.282C21.6433 18.1334 21.6433 19.1388 21.2127 19.9901C20.718 20.9681 19.5159 22.1085 18.5565 22.6475C18.0065 22.9564 17.2163 23.1619 16.5855 23.16C16.0336 23.1584 15.6312 23.044 15.1122 22.8965C11.8029 21.956 8.77192 20.1861 6.33804 17.7522Z" fill="#111827"/>
</svg>
