<svg width="48" height="48" viewBox="0 0 48 48" fill="none" xmlns="http://www.w3.org/2000/svg">
<rect x="0.5" y="0.5" width="47" height="47" rx="23.5" fill="#F9FAFB"/>
<rect x="0.5" y="0.5" width="47" height="47" rx="23.5" stroke="#E5E7EB"/>
<path fill-rule="evenodd" clip-rule="evenodd" d="M25.0687 17.8085C25.1744 17.2665 25.6996 16.9128 26.2416 17.0185C27.4137 17.2472 28.4909 17.8204 29.3353 18.6649C30.1797 19.5093 30.753 20.5865 30.9816 21.7585C31.0874 22.3006 30.7337 22.8258 30.1916 22.9315C29.6496 23.0373 29.1244 22.6836 29.0187 22.1415C28.8662 21.3601 28.484 20.642 27.9211 20.0791C27.3582 19.5161 26.64 19.134 25.8587 18.9815C25.3166 18.8758 24.9629 18.3506 25.0687 17.8085Z" fill="#111827"/>
<path fill-rule="evenodd" clip-rule="evenodd" d="M25.0563 13.8896C25.1172 13.3407 25.6117 12.9452 26.1606 13.0061C28.4153 13.2566 30.5179 14.2663 32.1231 15.8695C33.7282 17.4726 34.7406 19.5739 34.9939 21.8284C35.0556 22.3772 34.6606 22.8721 34.1118 22.9338C33.563 22.9954 33.0681 22.6005 33.0064 22.0517C32.8037 20.2481 31.9939 18.5671 30.7097 17.2846C29.4256 16.0021 27.7435 15.1943 25.9397 14.9939C25.3908 14.9329 24.9953 14.4385 25.0563 13.8896Z" fill="#111827"/>
<path fill-rule="evenodd" clip-rule="evenodd" d="M18.338 29.7522C15.9041 27.3183 14.1343 24.2873 13.1937 20.9781C13.0462 20.4591 12.9318 20.0566 12.9302 19.5047C12.9283 18.8739 13.1338 18.0837 13.4427 17.5337C13.974 16.588 15.1148 15.3759 16.1001 14.8775C16.9515 14.4469 17.9569 14.4469 18.8082 14.8775C19.6439 15.3002 20.6024 16.2786 21.1113 17.0614C21.7578 18.0557 21.7578 19.3376 21.1113 20.3319C20.9381 20.5984 20.6912 20.8449 20.4045 21.131C20.3152 21.2202 20.217 21.2845 20.2822 21.4204C20.9301 22.7697 21.8136 24.0353 22.9342 25.156C24.0549 26.2767 25.3205 27.1602 26.6698 27.808C26.8095 27.8751 26.8667 27.7783 26.9592 27.6857C27.2454 27.3991 27.4919 27.1521 27.7583 26.9789C28.7527 26.3324 30.0345 26.3324 31.0289 26.9789C31.8116 27.4878 32.79 28.4464 33.2127 29.282C33.6433 30.1334 33.6433 31.1388 33.2127 31.9901C32.718 32.9681 31.5159 34.1085 30.5565 34.6475C30.0065 34.9564 29.2163 35.1619 28.5855 35.16C28.0336 35.1584 27.6312 35.044 27.1122 34.8965C23.8029 33.956 20.7719 32.1861 18.338 29.7522Z" fill="#111827"/>
</svg>
